<svg xmlns="http://www.w3.org/2000/svg" viewBox="0 0 100 100"><title>Apricot</title><circle cx="36" cy="60" r="28" fill="#F9B24A"/><path d="M36 32C20 36 14 58 24 74C32 84 44 82 50 72C58 56 52 36 36 32Z" fill="#F07C3A" opacity="0.5"/><path d="M36 34C32 46 34 62 40 80" fill="none" stroke="#D9822A" stroke-width="2.2" stroke-linecap="round" stroke-linejoin="round"/><ellipse cx="24" cy="50" rx="5" ry="9" fill="#FFE0A8" opacity="0.6" transform="rotate(20 24 50)"/><g transform="translate(38 32) rotate(-40)"><path d="M0 0C6.6 -6.2 16.5 -6.2 22 0C16.5 6.2 6.6 6.2 0 0Z" fill="#3E9B4F"/></g><ellipse cx="74" cy="64" rx="18" ry="22" fill="#FBC565" stroke="#E69A32" stroke-width="1.5"/><ellipse cx="74" cy="64" rx="8" ry="11" fill="#8A4A22"/><ellipse cx="72" cy="60" rx="2" ry="4" fill="#C9985E" opacity="0.7"/></svg>
