<svg xmlns="http://www.w3.org/2000/svg" viewBox="0 0 100 100"><title>Cranberry</title><circle cx="34" cy="50" r="15" fill="#B01E3C"/><circle cx="30" cy="46" r="3.6" fill="#F27A8A"/><circle cx="36" cy="53" r="1.6" fill="#6B1020"/><circle cx="62" cy="44" r="15" fill="#B01E3C"/><circle cx="58" cy="40" r="3.6" fill="#F27A8A"/><circle cx="64" cy="47" r="1.6" fill="#6B1020"/><circle cx="48" cy="68" r="15" fill="#B01E3C"/><circle cx="44" cy="64" r="3.6" fill="#F27A8A"/><circle cx="50" cy="71" r="1.6" fill="#6B1020"/><circle cx="76" cy="68" r="13" fill="#B01E3C"/><circle cx="72" cy="64" r="3.6" fill="#F27A8A"/><circle cx="78" cy="71" r="1.6" fill="#6B1020"/><circle cx="22" cy="72" r="13" fill="#B01E3C"/><circle cx="18" cy="68" r="3.6" fill="#F27A8A"/><circle cx="24" cy="75" r="1.6" fill="#6B1020"/><g transform="translate(50 22) rotate(-120)"><path d="M0 0C7.2 -6 18 -6 24 0C18 6 7.2 6 0 0Z" fill="#3E9B4F"/></g><g transform="translate(50 22) rotate(-60)"><path d="M0 0C7.2 -6 18 -6 24 0C18 6 7.2 6 0 0Z" fill="#2F6A32"/></g><path d="M50 22V40" fill="none" stroke="#6B4A2B" stroke-width="2.5" stroke-linecap="round" stroke-linejoin="round"/></svg>
