<svg xmlns="http://www.w3.org/2000/svg" viewBox="0 0 100 100"><title>Driftwood</title><g fill="none" stroke-linecap="round" stroke-linejoin="round"><path d="M12 74C26 60 34 40 50 36C64 32 70 22 88 20" stroke="#6F5E48" stroke-width="15"/><path d="M44 40C40 30 42 22 36 16" stroke="#6F5E48" stroke-width="10"/><path d="M64 32C70 40 76 42 84 44" stroke="#6F5E48" stroke-width="9"/><path d="M12 74C26 60 34 40 50 36C64 32 70 22 88 20" stroke="#C9B8A0" stroke-width="10"/><path d="M44 40C40 30 42 22 36 16" stroke="#C9B8A0" stroke-width="5.5"/><path d="M64 32C70 40 76 42 84 44" stroke="#C9B8A0" stroke-width="4.5"/><path d="M14 72C28 58 36 38 52 33C66 29 72 20 86 18" stroke="#EFE4D0" stroke-width="2.6"/></g><circle cx="38" cy="52" r="4.2" fill="#8A7456" stroke="#6F5E48" stroke-width="1"/><path d="M8 90C16 83 24 97 32 90S46 97 54 90S68 97 76 90S88 94 94 90" fill="none" stroke="#3F82C4" stroke-width="4.5" stroke-linecap="round" stroke-linejoin="round"/></svg>