<svg xmlns="http://www.w3.org/2000/svg" viewBox="0 0 100 100"><title>Floral Bouquet</title><path d="M30 56L50 90M50 50V90M70 56L50 90" fill="none" stroke="#3E7A4B" stroke-width="3.5" stroke-linecap="round" stroke-linejoin="round"/><g transform="translate(50 90) rotate(-140)"><path d="M0 0C9 -7 22.5 -7 30 0C22.5 7 9 7 0 0Z" fill="#2F6A32"/></g><g transform="translate(50 90) rotate(-40)"><path d="M0 0C9 -7 22.5 -7 30 0C22.5 7 9 7 0 0Z" fill="#3E9B4F"/></g><g fill="#E8579A"><circle cx="30" cy="25.7" r="12.5"/><circle cx="43.6" cy="35.6" r="12.5"/><circle cx="38.4" cy="51.6" r="12.5"/><circle cx="21.6" cy="51.6" r="12.5"/><circle cx="16.4" cy="35.6" r="12.5"/></g><circle cx="30" cy="40" r="4" fill="#F8C6DE"/><g fill="#FBF6EA" stroke="#CFC8B6" stroke-width="2"><ellipse cx="50" cy="18" rx="4.6" ry="10" transform="rotate(0 50 28)"/><ellipse cx="50" cy="18" rx="4.6" ry="10" transform="rotate(45 50 28)"/><ellipse cx="50" cy="18" rx="4.6" ry="10" transform="rotate(90 50 28)"/><ellipse cx="50" cy="18" rx="4.6" ry="10" transform="rotate(135 50 28)"/><ellipse cx="50" cy="18" rx="4.6" ry="10" transform="rotate(180 50 28)"/><ellipse cx="50" cy="18" rx="4.6" ry="10" transform="rotate(225 50 28)"/><ellipse cx="50" cy="18" rx="4.6" ry="10" transform="rotate(270 50 28)"/><ellipse cx="50" cy="18" rx="4.6" ry="10" transform="rotate(315 50 28)"/></g><circle cx="50" cy="28" r="5" fill="#F2C21E"/><g fill="#8A5BC8"><circle cx="70" cy="25.7" r="12.5"/><circle cx="83.6" cy="35.6" r="12.5"/><circle cx="78.4" cy="51.6" r="12.5"/><circle cx="61.6" cy="51.6" r="12.5"/><circle cx="56.4" cy="35.6" r="12.5"/></g><circle cx="70" cy="40" r="4" fill="#F2C94C"/><path d="M38 78L62 78L56 90L44 90Z" fill="#E24A60"/></svg>
