<svg xmlns="http://www.w3.org/2000/svg" viewBox="0 0 100 100"><title>Frankincense</title><path d="M50 32C40 25 60 19 50 12S56 5 48 2" fill="none" stroke="#8E8AA8" stroke-width="5" stroke-linecap="round" stroke-linejoin="round"/><path d="M50 38C70 56.400000000000006 70 84 50 84C30 84 30 56.400000000000006 50 38Z" fill="#F6E7A6" stroke="#9C7C2A" stroke-width="3" stroke-linejoin="round"/><ellipse cx="42" cy="67.9" rx="2.4" ry="7.4" fill="#fff" opacity="0.9"/><path d="M21 54C36 68.4 36 90 21 90C6 90 6 68.4 21 54Z" fill="#F6E7A6" stroke="#9C7C2A" stroke-width="3" stroke-linejoin="round"/><ellipse cx="15" cy="77.4" rx="2.4" ry="5.8" fill="#fff" opacity="0.9"/><path d="M79 50C95 65.2 95 88 79 88C63 88 63 65.2 79 50Z" fill="#F6E7A6" stroke="#9C7C2A" stroke-width="3" stroke-linejoin="round"/><ellipse cx="72.6" cy="74.7" rx="2.4" ry="6.1" fill="#fff" opacity="0.9"/></svg>