<svg xmlns="http://www.w3.org/2000/svg" viewBox="0 0 100 100"><title>Freesia</title><path d="M20 92C24 60 30 36 56 22" fill="none" stroke="#3E7A4B" stroke-width="3.5" stroke-linecap="round" stroke-linejoin="round"/><g transform="translate(22 90) rotate(-62)"><path d="M0 0C12 -5 30 -5 40 0C30 5 12 5 0 0Z" fill="#3E9B4F"/></g><g fill="#F29AC0"><ellipse cx="34" cy="40.8" rx="6.7" ry="11.5" transform="rotate(0 34 52)"/><ellipse cx="34" cy="40.8" rx="6.7" ry="11.5" transform="rotate(60 34 52)"/><ellipse cx="34" cy="40.8" rx="6.7" ry="11.5" transform="rotate(120 34 52)"/><ellipse cx="34" cy="40.8" rx="6.7" ry="11.5" transform="rotate(180 34 52)"/><ellipse cx="34" cy="40.8" rx="6.7" ry="11.5" transform="rotate(240 34 52)"/><ellipse cx="34" cy="40.8" rx="6.7" ry="11.5" transform="rotate(300 34 52)"/></g><circle cx="34" cy="52" r="4.5" fill="#F8E08A"/><g fill="#F7B6D0"><ellipse cx="48" cy="24.2" rx="5.9" ry="10.1" transform="rotate(20 48 34)"/><ellipse cx="48" cy="24.2" rx="5.9" ry="10.1" transform="rotate(80 48 34)"/><ellipse cx="48" cy="24.2" rx="5.9" ry="10.1" transform="rotate(140 48 34)"/><ellipse cx="48" cy="24.2" rx="5.9" ry="10.1" transform="rotate(200 48 34)"/><ellipse cx="48" cy="24.2" rx="5.9" ry="10.1" transform="rotate(260 48 34)"/><ellipse cx="48" cy="24.2" rx="5.9" ry="10.1" transform="rotate(320 48 34)"/></g><circle cx="48" cy="34" r="3.9" fill="#F8E08A"/><g fill="#F29AC0"><ellipse cx="66" cy="15" rx="4.2" ry="7.2" transform="rotate(40 66 22)"/><ellipse cx="66" cy="15" rx="4.2" ry="7.2" transform="rotate(100 66 22)"/><ellipse cx="66" cy="15" rx="4.2" ry="7.2" transform="rotate(160 66 22)"/><ellipse cx="66" cy="15" rx="4.2" ry="7.2" transform="rotate(220 66 22)"/><ellipse cx="66" cy="15" rx="4.2" ry="7.2" transform="rotate(280 66 22)"/><ellipse cx="66" cy="15" rx="4.2" ry="7.2" transform="rotate(340 66 22)"/></g><circle cx="66" cy="22" r="2.8" fill="#F8E08A"/></svg>
