<svg xmlns="http://www.w3.org/2000/svg" viewBox="0 0 100 100"><title>Leather</title><path d="M30 14C38 18 62 18 70 14C78 24 90 28 92 40C86 46 82 50 84 60C86 74 88 82 80 90C70 92 66 84 50 84C34 84 30 92 20 90C12 82 14 74 16 60C18 50 14 46 8 40C10 28 22 24 30 14Z" fill="#A0602F"/><path d="M34 24C42 27 58 27 66 24C74 32 82 36 84 42C78 48 76 54 78 62C80 72 80 76 76 82C68 80 62 76 50 76C38 76 32 80 24 82C20 76 20 72 22 62C24 54 22 48 16 42C18 36 26 32 34 24Z" fill="none" stroke="#F0D9A8" stroke-width="2.4" stroke-dasharray="5 4"/><ellipse cx="34" cy="30" rx="8" ry="4" fill="#E8A465" opacity="0.5" transform="rotate(-15 34 30)"/></svg>
