<svg xmlns="http://www.w3.org/2000/svg" viewBox="0 0 100 100"><title>Mineral</title><path d="M10 80L18 52L40 38L62 44L72 66L60 86L28 90Z" fill="#9AA3AD" stroke="#6E7882" stroke-width="1.5"/><path d="M18 52L40 38L44 56L24 64Z" fill="#B9C2CC"/><path d="M40 38L62 44L56 60L44 56Z" fill="#C9D2DB"/><path d="M44 56L56 60L72 66L60 86L40 78Z" fill="#7E8892"/><path d="M62 44L72 10L82 44L72 60Z" fill="#DCE7F2" stroke="#8FA8C4" stroke-width="1.5"/><path d="M72 10L82 44L72 60Z" fill="#B8CCE2"/><path d="M80 56L88 30L94 58L88 72Z" fill="#CFDCEC" stroke="#8FA8C4" stroke-width="1.5"/></svg>
