<svg xmlns="http://www.w3.org/2000/svg" viewBox="0 0 100 100"><title>Oud</title><path d="M12 70L16 44L36 26L50 34L44 56L54 78L30 86Z" fill="#4A2C1B" stroke="#9A8574" stroke-width="1.5"/><path d="M44 56L50 34L74 22L88 40L78 64L54 78Z" fill="#5E3A24" stroke="#9A8574" stroke-width="1.5"/><path d="M20 66C28 56 30 46 34 38M36 78C40 68 42 62 44 56" fill="none" stroke="#D49A3A" stroke-width="3" stroke-linecap="round" stroke-linejoin="round"/><path d="M56 70C64 60 70 48 76 34M68 66C74 60 80 54 84 44" fill="none" stroke="#D49A3A" stroke-width="3" stroke-linecap="round" stroke-linejoin="round"/><path d="M46 24C36 18.5 56 13 46 8.600000000000001S52 3.1000000000000014 44 2" fill="none" stroke="#B9B9C0" stroke-width="3" stroke-linecap="round" stroke-linejoin="round"/></svg>
