<svg xmlns="http://www.w3.org/2000/svg" viewBox="0 0 100 100"><title>Passionfruit</title><circle cx="40" cy="60" r="32" fill="#6B2D7A"/><circle cx="40" cy="60" r="27" fill="#F3E4C8"/><circle cx="40" cy="60" r="23" fill="#F6C94A"/><ellipse cx="30" cy="50" rx="3" ry="4.4" fill="#3A2A2A"/><ellipse cx="29" cy="48.5" rx="0.9" ry="1.4" fill="#F6E3A0" opacity="0.9"/><ellipse cx="44" cy="46" rx="3" ry="4.4" fill="#3A2A2A"/><ellipse cx="43" cy="44.5" rx="0.9" ry="1.4" fill="#F6E3A0" opacity="0.9"/><ellipse cx="52" cy="58" rx="3" ry="4.4" fill="#3A2A2A"/><ellipse cx="51" cy="56.5" rx="0.9" ry="1.4" fill="#F6E3A0" opacity="0.9"/><ellipse cx="38" cy="64" rx="3" ry="4.4" fill="#3A2A2A"/><ellipse cx="37" cy="62.5" rx="0.9" ry="1.4" fill="#F6E3A0" opacity="0.9"/><ellipse cx="30" cy="72" rx="3" ry="4.4" fill="#3A2A2A"/><ellipse cx="29" cy="70.5" rx="0.9" ry="1.4" fill="#F6E3A0" opacity="0.9"/><ellipse cx="48" cy="74" rx="3" ry="4.4" fill="#3A2A2A"/><ellipse cx="47" cy="72.5" rx="0.9" ry="1.4" fill="#F6E3A0" opacity="0.9"/><ellipse cx="58" cy="68" rx="3" ry="4.4" fill="#3A2A2A"/><ellipse cx="57" cy="66.5" rx="0.9" ry="1.4" fill="#F6E3A0" opacity="0.9"/><ellipse cx="44" cy="58" rx="3" ry="4.4" fill="#3A2A2A"/><ellipse cx="43" cy="56.5" rx="0.9" ry="1.4" fill="#F6E3A0" opacity="0.9"/><circle cx="80" cy="28" r="15" fill="#8A3D9A"/><ellipse cx="75" cy="23" rx="4" ry="5" fill="#C69AD8" opacity="0.6" transform="rotate(25 75 23)"/><g transform="translate(76 14) rotate(-40)"><path d="M0 0C4.8 -4.5 12 -4.5 16 0C12 4.5 4.8 4.5 0 0Z" fill="#3E9B4F"/></g></svg>
