<svg xmlns="http://www.w3.org/2000/svg" viewBox="0 0 100 100"><title>Star Anise</title><g transform="translate(50 50) rotate(0)"><path d="M0 0C-9 -8 -9 -30 0 -42C9 -30 9 -8 0 0Z" fill="#8A4A22" stroke="#C98A5E" stroke-width="1.2"/><ellipse cx="0" cy="-22" rx="3" ry="5" fill="#4A2412"/></g><g transform="translate(50 50) rotate(45)"><path d="M0 0C-9 -8 -9 -30 0 -42C9 -30 9 -8 0 0Z" fill="#8A4A22" stroke="#C98A5E" stroke-width="1.2"/><ellipse cx="0" cy="-22" rx="3" ry="5" fill="#4A2412"/></g><g transform="translate(50 50) rotate(90)"><path d="M0 0C-9 -8 -9 -30 0 -42C9 -30 9 -8 0 0Z" fill="#8A4A22" stroke="#C98A5E" stroke-width="1.2"/><ellipse cx="0" cy="-22" rx="3" ry="5" fill="#4A2412"/></g><g transform="translate(50 50) rotate(135)"><path d="M0 0C-9 -8 -9 -30 0 -42C9 -30 9 -8 0 0Z" fill="#8A4A22" stroke="#C98A5E" stroke-width="1.2"/><ellipse cx="0" cy="-22" rx="3" ry="5" fill="#4A2412"/></g><g transform="translate(50 50) rotate(180)"><path d="M0 0C-9 -8 -9 -30 0 -42C9 -30 9 -8 0 0Z" fill="#8A4A22" stroke="#C98A5E" stroke-width="1.2"/><ellipse cx="0" cy="-22" rx="3" ry="5" fill="#4A2412"/></g><g transform="translate(50 50) rotate(225)"><path d="M0 0C-9 -8 -9 -30 0 -42C9 -30 9 -8 0 0Z" fill="#8A4A22" stroke="#C98A5E" stroke-width="1.2"/><ellipse cx="0" cy="-22" rx="3" ry="5" fill="#4A2412"/></g><g transform="translate(50 50) rotate(270)"><path d="M0 0C-9 -8 -9 -30 0 -42C9 -30 9 -8 0 0Z" fill="#8A4A22" stroke="#C98A5E" stroke-width="1.2"/><ellipse cx="0" cy="-22" rx="3" ry="5" fill="#4A2412"/></g><g transform="translate(50 50) rotate(315)"><path d="M0 0C-9 -8 -9 -30 0 -42C9 -30 9 -8 0 0Z" fill="#8A4A22" stroke="#C98A5E" stroke-width="1.2"/><ellipse cx="0" cy="-22" rx="3" ry="5" fill="#4A2412"/></g><circle cx="50" cy="50" r="7" fill="#5E2E12"/></svg>
