<svg xmlns="http://www.w3.org/2000/svg" viewBox="0 0 100 100"><title>Turmeric</title><path d="M10 62C10 50 22 44 34 48C40 38 56 38 62 48C74 44 88 52 84 64C88 74 76 82 66 78C58 86 42 86 36 78C24 82 8 76 10 62Z" fill="#E8801A" stroke="#B8601A" stroke-width="1.5"/><path d="M34 48C34 58 36 70 38 78M62 48C60 58 62 70 64 78" fill="none" stroke="#B8601A" stroke-width="2.5" stroke-linecap="round" stroke-linejoin="round"/><ellipse cx="76" cy="30" rx="14" ry="8" fill="#F2B820" transform="rotate(-25 76 30)" stroke="#C9901A" stroke-width="1.4"/><ellipse cx="76" cy="30" rx="8" ry="4" fill="#F7CE4A" transform="rotate(-25 76 30)"/><path d="M12 92C20 80 40 76 52 82C64 76 84 80 90 92Z" fill="#F2B820"/><ellipse cx="22" cy="60" rx="5" ry="3" fill="#F5A858" opacity="0.7"/></svg>
